<svg width="140" height="26" viewBox="0 0 140 26" fill="none" xmlns="http://www.w3.org/2000/svg">
<path d="M0 25.6412V1.14811H9.92215C11.8296 1.14811 13.4547 1.50291 14.7973 2.21251C16.1399 2.91414 17.1632 3.89083 17.8672 5.14259C18.5795 6.38638 18.9356 7.82153 18.9356 9.44802C18.9356 11.0745 18.5754 12.5097 17.855 13.7534C17.1345 14.9972 16.0908 15.966 14.7236 16.6596C13.3646 17.3533 11.7191 17.7001 9.78708 17.7001H3.46293V13.5501H8.92748C9.95081 13.5501 10.794 13.3787 11.4571 13.0359C12.1284 12.6851 12.6278 12.2027 12.9553 11.5888C13.2909 10.9669 13.4588 10.2533 13.4588 9.44802C13.4588 8.63477 13.2909 7.92518 12.9553 7.31923C12.6278 6.7053 12.1284 6.23091 11.4571 5.89604C10.7858 5.55321 9.93443 5.38179 8.90292 5.38179H5.31719V25.6412H0Z" fill="#212121"/>
<path d="M22.2911 25.6412V7.27139H27.3627V10.4765H27.5592C27.903 9.3364 28.4801 8.47531 29.2906 7.89329C30.1011 7.30328 31.0344 7.00828 32.0904 7.00828C32.3524 7.00828 32.6348 7.02423 32.9377 7.05612C33.2406 7.08801 33.5067 7.13186 33.7359 7.18767V11.7084C33.4903 11.6366 33.1506 11.5728 32.7167 11.517C32.2828 11.4612 31.8858 11.4333 31.5256 11.4333C30.756 11.4333 30.0683 11.5967 29.4625 11.9236C28.8649 12.2426 28.3901 12.6891 28.0381 13.2631C27.6942 13.8372 27.5223 14.4989 27.5223 15.2484V25.6412H22.2911Z" fill="#212121"/>
<path d="M44.0848 26C42.1773 26 40.5277 25.6053 39.136 24.816C37.7525 24.0187 36.6841 22.9105 35.931 21.4913C35.1778 20.0641 34.8012 18.4097 34.8012 16.5281C34.8012 14.6305 35.1778 12.9721 35.931 11.5529C36.6841 10.1257 37.7525 9.01748 39.136 8.22815C40.5277 7.43085 42.1773 7.0322 44.0848 7.0322C45.9923 7.0322 47.6378 7.43085 49.0213 8.22815C50.4131 9.01748 51.4855 10.1257 52.2387 11.5529C52.9918 12.9721 53.3684 14.6305 53.3684 16.5281C53.3684 18.4097 52.9918 20.0641 52.2387 21.4913C51.4855 22.9105 50.4131 24.0187 49.0213 24.816C47.6378 25.6053 45.9923 26 44.0848 26ZM44.1094 22.0534C44.9772 22.0534 45.7017 21.8142 46.2829 21.3358C46.8642 20.8494 47.3021 20.1877 47.5969 19.3505C47.8998 18.5133 48.0512 17.5606 48.0512 16.4922C48.0512 15.4238 47.8998 14.471 47.5969 13.6339C47.3021 12.7967 46.8642 12.1349 46.2829 11.6486C45.7017 11.1622 44.9772 10.919 44.1094 10.919C43.2334 10.919 42.4966 11.1622 41.899 11.6486C41.3096 12.1349 40.8634 12.7967 40.5605 13.6339C40.2658 14.471 40.1184 15.4238 40.1184 16.4922C40.1184 17.5606 40.2658 18.5133 40.5605 19.3505C40.8634 20.1877 41.3096 20.8494 41.899 21.3358C42.4966 21.8142 43.2334 22.0534 44.1094 22.0534Z" fill="#212121"/>
<path d="M66.9131 7.27139V11.0984H55.2718V7.27139H66.9131ZM57.9365 25.6412V5.94388C57.9365 4.61239 58.2026 3.50813 58.7347 2.63109C59.275 1.75406 60.0118 1.09629 60.9451 0.657774C61.8784 0.219258 62.9385 0 64.1256 0C64.9279 0 65.6606 0.0597981 66.3237 0.179394C66.995 0.298989 67.4944 0.406625 67.8219 0.502301L66.8886 4.32935C66.6839 4.26556 66.4301 4.20577 66.1272 4.14995C65.8325 4.09414 65.5296 4.06624 65.2185 4.06624C64.449 4.06624 63.9127 4.24165 63.6098 4.59246C63.3069 4.9353 63.1555 5.41766 63.1555 6.03956V25.6412H57.9365Z" fill="#212121"/>
<path d="M70.109 25.6412V7.27139H75.0946V10.5124H75.3157C75.7086 9.43606 76.3635 8.58694 77.2804 7.96504C78.1973 7.34315 79.2943 7.0322 80.5714 7.0322C81.8649 7.0322 82.966 7.34713 83.8747 7.977C84.7835 8.5989 85.3893 9.44404 85.6922 10.5124H85.8886C86.2734 9.45998 86.9693 8.61883 87.9762 7.98896C88.9914 7.35112 90.1907 7.0322 91.5742 7.0322C93.3344 7.0322 94.7629 7.57835 95.8599 8.67065C96.9651 9.75498 97.5177 11.2938 97.5177 13.287V25.6412H92.2988V14.2916C92.2988 13.2711 92.0204 12.5057 91.4637 11.9954C90.907 11.4851 90.2112 11.23 89.3761 11.23C88.4265 11.23 87.6856 11.525 87.1535 12.115C86.6213 12.697 86.3553 13.4664 86.3553 14.4232V25.6412H81.2837V14.184C81.2837 13.283 81.0176 12.5655 80.4855 12.0313C79.9616 11.4971 79.2698 11.23 78.4102 11.23C77.8289 11.23 77.305 11.3735 76.8384 11.6605C76.3799 11.9396 76.0156 12.3343 75.7455 12.8445C75.4753 13.3468 75.3402 13.9368 75.3402 14.6145V25.6412H70.109Z" fill="#006A97"/>
<path d="M110.246 26C108.306 26 106.636 25.6173 105.236 24.8519C103.844 24.0785 102.771 22.9862 102.018 21.575C101.265 20.1558 100.889 18.4775 100.889 16.54C100.889 14.6504 101.265 12.992 102.018 11.5649C102.771 10.1377 103.832 9.02545 105.199 8.22815C106.574 7.43085 108.187 7.0322 110.037 7.0322C111.281 7.0322 112.44 7.22754 113.512 7.61822C114.593 8.00092 115.534 8.57896 116.337 9.35235C117.147 10.1257 117.777 11.0984 118.228 12.2705C118.678 13.4345 118.903 14.7979 118.903 16.3606V17.7599H102.976V14.6026H113.979C113.979 13.8691 113.815 13.2193 113.488 12.6532C113.16 12.0871 112.706 11.6446 112.125 11.3257C111.552 10.9988 110.884 10.8353 110.123 10.8353C109.329 10.8353 108.625 11.0147 108.011 11.3735C107.405 11.7243 106.93 12.1987 106.586 12.7967C106.243 13.3867 106.067 14.0445 106.058 14.77V17.7718C106.058 18.6808 106.23 19.4661 106.574 20.1279C106.926 20.7896 107.421 21.2999 108.06 21.6587C108.699 22.0175 109.456 22.1969 110.332 22.1969C110.913 22.1969 111.445 22.1171 111.928 21.9577C112.411 21.7982 112.825 21.559 113.168 21.2401C113.512 20.9212 113.774 20.5305 113.954 20.0681L118.793 20.379C118.547 21.5112 118.044 22.4998 117.282 23.345C116.529 24.1822 115.555 24.8359 114.36 25.3063C113.173 25.7688 111.801 26 110.246 26Z" fill="#006A97"/>
<path d="M129.267 25.9402C127.835 25.9402 126.537 25.5814 125.375 24.8638C124.22 24.1383 123.303 23.0739 122.624 21.6707C121.953 20.2594 121.617 18.5293 121.617 16.4802C121.617 14.3753 121.965 12.6253 122.661 11.23C123.357 9.82674 124.282 8.77829 125.436 8.08464C126.599 7.38301 127.872 7.0322 129.255 7.0322C130.311 7.0322 131.191 7.20761 131.895 7.55842C132.608 7.90126 133.181 8.3318 133.614 8.85005C134.057 9.36032 134.392 9.86262 134.621 10.3569H134.781V1.14811H140V25.6412H134.842V22.6992H134.621C134.376 23.2094 134.028 23.7157 133.578 24.218C133.136 24.7124 132.558 25.123 131.846 25.4499C131.142 25.7768 130.283 25.9402 129.267 25.9402ZM130.925 21.8859C131.768 21.8859 132.481 21.6627 133.062 21.2162C133.651 20.7617 134.102 20.1279 134.413 19.3146C134.732 18.5014 134.892 17.5486 134.892 16.4563C134.892 15.364 134.736 14.4152 134.425 13.6099C134.114 12.8047 133.664 12.1828 133.074 11.7442C132.485 11.3057 131.768 11.0865 130.925 11.0865C130.066 11.0865 129.341 11.3137 128.752 11.7682C128.162 12.2226 127.716 12.8525 127.413 13.6578C127.11 14.463 126.959 15.3959 126.959 16.4563C126.959 17.5247 127.11 18.4695 127.413 19.2907C127.724 20.104 128.17 20.7418 128.752 21.2042C129.341 21.6587 130.066 21.8859 130.925 21.8859Z" fill="#006A97"/>
</svg>
