<svg width="292" height="56" viewBox="0 0 292 56" fill="none" xmlns="http://www.w3.org/2000/svg">
<path d="M-1.11461e-05 54.8182V2.45454H20.6591C24.6307 2.45454 28.0142 3.21306 30.8096 4.73011C33.6051 6.23011 35.7358 8.31817 37.2017 10.9943C38.6846 13.6534 39.4261 16.7216 39.4261 20.1989C39.4261 23.6761 38.6761 26.7443 37.1761 29.4034C35.6761 32.0625 33.5028 34.1335 30.6562 35.6165C27.8267 37.0994 24.4006 37.8409 20.3778 37.8409H7.21022V28.9687H18.5881C20.7187 28.9687 22.4744 28.6023 23.8551 27.8693C25.2528 27.1193 26.2926 26.0881 26.9744 24.7756C27.6733 23.446 28.0227 21.9204 28.0227 20.1989C28.0227 18.4602 27.6733 16.9432 26.9744 15.6477C26.2926 14.3352 25.2528 13.321 23.8551 12.6051C22.4574 11.8722 20.6846 11.5057 18.5369 11.5057H11.071V54.8182H-1.11461e-05ZM46.4126 54.8182V15.5454H56.9723V22.3977H57.3814C58.0973 19.9602 59.299 18.1193 60.9865 16.875C62.674 15.6136 64.6172 14.9829 66.816 14.9829C67.3615 14.9829 67.9496 15.017 68.5802 15.0852C69.2109 15.1534 69.7649 15.2472 70.2422 15.3665V25.0312C69.7308 24.8778 69.0234 24.7415 68.12 24.6222C67.2166 24.5028 66.3899 24.4432 65.6399 24.4432C64.0376 24.4432 62.6058 24.7926 61.3444 25.4915C60.1001 26.1733 59.1115 27.1278 58.3785 28.3551C57.6626 29.5824 57.3047 30.9972 57.3047 32.5994V54.8182H46.4126ZM91.7898 55.5852C87.8182 55.5852 84.3835 54.7415 81.4858 53.054C78.6051 51.3494 76.3807 48.9801 74.8125 45.946C73.2443 42.8949 72.4602 39.3579 72.4602 35.3352C72.4602 31.2784 73.2443 27.7329 74.8125 24.6989C76.3807 21.6477 78.6051 19.2784 81.4858 17.5909C84.3835 15.8864 87.8182 15.0341 91.7898 15.0341C95.7614 15.0341 99.1875 15.8864 102.068 17.5909C104.966 19.2784 107.199 21.6477 108.767 24.6989C110.335 27.7329 111.119 31.2784 111.119 35.3352C111.119 39.3579 110.335 42.8949 108.767 45.946C107.199 48.9801 104.966 51.3494 102.068 53.054C99.1875 54.7415 95.7614 55.5852 91.7898 55.5852ZM91.8409 47.1477C93.6477 47.1477 95.1562 46.6364 96.3665 45.6136C97.5767 44.5739 98.4886 43.1591 99.1023 41.3693C99.7329 39.5795 100.048 37.5426 100.048 35.2585C100.048 32.9744 99.7329 30.9375 99.1023 29.1477C98.4886 27.3579 97.5767 25.9432 96.3665 24.9034C95.1562 23.8636 93.6477 23.3437 91.8409 23.3437C90.017 23.3437 88.4829 23.8636 87.2386 24.9034C86.0114 25.9432 85.0824 27.3579 84.4517 29.1477C83.8381 30.9375 83.5312 32.9744 83.5312 35.2585C83.5312 37.5426 83.8381 39.5795 84.4517 41.3693C85.0824 43.1591 86.0114 44.5739 87.2386 45.6136C88.4829 46.6364 90.017 47.1477 91.8409 47.1477ZM139.321 15.5454V23.7273H115.082V15.5454H139.321ZM120.631 54.8182V12.7074C120.631 9.86079 121.185 7.49999 122.293 5.62499C123.418 3.74999 124.952 2.34374 126.895 1.40624C128.838 0.468741 131.045 -9.05991e-06 133.517 -9.05991e-06C135.187 -9.05991e-06 136.713 0.127833 138.094 0.383517C139.491 0.639198 140.531 0.869311 141.213 1.07386L139.27 9.25568C138.844 9.11931 138.315 8.99147 137.685 8.87215C137.071 8.75283 136.44 8.69318 135.793 8.69318C134.19 8.69318 133.074 9.06818 132.443 9.81818C131.812 10.5511 131.497 11.5824 131.497 12.9119V54.8182H120.631ZM145.975 54.8182V15.5454H156.356V22.4744H156.816C157.634 20.1733 158.998 18.3579 160.907 17.0284C162.816 15.6989 165.1 15.0341 167.759 15.0341C170.452 15.0341 172.745 15.7074 174.637 17.054C176.529 18.3835 177.79 20.1903 178.421 22.4744H178.83C179.631 20.2244 181.08 18.4261 183.177 17.0795C185.29 15.7159 187.788 15.0341 190.668 15.0341C194.333 15.0341 197.308 16.2017 199.592 18.5369C201.893 20.8551 203.043 24.1449 203.043 28.4062V54.8182H192.177V30.554C192.177 28.3722 191.597 26.7358 190.438 25.6449C189.279 24.554 187.83 24.0085 186.092 24.0085C184.114 24.0085 182.572 24.6392 181.464 25.9006C180.356 27.1449 179.802 28.7898 179.802 30.8352V54.8182H169.242V30.3239C169.242 28.3977 168.688 26.8636 167.58 25.7216C166.489 24.5795 165.049 24.0085 163.259 24.0085C162.049 24.0085 160.958 24.3153 159.986 24.929C159.032 25.5256 158.273 26.3693 157.711 27.4602C157.148 28.5341 156.867 29.7954 156.867 31.2443V54.8182H145.975ZM229.545 55.5852C225.505 55.5852 222.028 54.767 219.113 53.1307C216.215 51.4773 213.982 49.142 212.414 46.125C210.846 43.0909 210.062 39.5028 210.062 35.3608C210.062 31.321 210.846 27.7756 212.414 24.7244C213.982 21.6733 216.19 19.2954 219.036 17.5909C221.9 15.8864 225.258 15.0341 229.11 15.0341C231.701 15.0341 234.113 15.4517 236.346 16.2869C238.596 17.1051 240.556 18.3409 242.227 19.9943C243.914 21.6477 245.227 23.7273 246.164 26.2329C247.102 28.7216 247.57 31.6364 247.57 34.9773V37.9687H214.408V31.2187H237.317C237.317 29.6506 236.977 28.2614 236.295 27.0511C235.613 25.8409 234.667 24.8949 233.457 24.2131C232.263 23.5142 230.874 23.1648 229.289 23.1648C227.636 23.1648 226.17 23.5483 224.891 24.3153C223.63 25.0653 222.641 26.0795 221.925 27.3579C221.21 28.6193 220.843 30.0256 220.826 31.5767V37.9943C220.826 39.9375 221.184 41.6165 221.9 43.0312C222.633 44.446 223.664 45.5369 224.994 46.304C226.323 47.071 227.9 47.4545 229.724 47.4545C230.934 47.4545 232.042 47.2841 233.048 46.9432C234.053 46.6023 234.914 46.0909 235.63 45.4091C236.346 44.7273 236.891 43.892 237.266 42.9034L247.34 43.5682C246.829 45.9886 245.781 48.1023 244.195 49.9091C242.627 51.6989 240.599 53.0966 238.11 54.1023C235.638 55.0909 232.783 55.5852 229.545 55.5852ZM269.15 55.4574C266.167 55.4574 263.465 54.6903 261.045 53.1562C258.641 51.6051 256.732 49.3295 255.317 46.3295C253.92 43.3125 253.221 39.6136 253.221 35.2329C253.221 30.7329 253.945 26.9915 255.394 24.0085C256.843 21.0085 258.769 18.767 261.173 17.2841C263.593 15.7841 266.244 15.0341 269.124 15.0341C271.323 15.0341 273.156 15.4091 274.621 16.1591C276.104 16.892 277.298 17.8125 278.201 18.9204C279.121 20.0114 279.82 21.0852 280.298 22.142H280.63V2.45454H291.496V54.8182H280.758V48.5284H280.298C279.786 49.6193 279.062 50.7017 278.124 51.7756C277.204 52.8324 276.002 53.7102 274.519 54.4091C273.053 55.1079 271.263 55.4574 269.15 55.4574ZM272.602 46.7898C274.357 46.7898 275.84 46.3125 277.05 45.3579C278.278 44.3864 279.215 43.0312 279.863 41.2926C280.528 39.554 280.86 37.517 280.86 35.1818C280.86 32.8466 280.536 30.8182 279.888 29.0966C279.241 27.375 278.303 26.0454 277.076 25.1079C275.849 24.1704 274.357 23.7017 272.602 23.7017C270.812 23.7017 269.303 24.1875 268.076 25.1591C266.849 26.1307 265.92 27.4773 265.289 29.1989C264.658 30.9204 264.343 32.9148 264.343 35.1818C264.343 37.4659 264.658 39.4858 265.289 41.2415C265.937 42.9801 266.866 44.3437 268.076 45.3324C269.303 46.304 270.812 46.7898 272.602 46.7898Z" fill="#212529"/>
</svg>
