<svg width="32" height="32" viewBox="0 0 32 32" fill="none" xmlns="http://www.w3.org/2000/svg">
<path d="M16 17.125C18.2782 17.125 20.125 15.2782 20.125 13C20.125 10.7218 18.2782 8.875 16 8.875C13.7218 8.875 11.875 10.7218 11.875 13C11.875 15.2782 13.7218 17.125 16 17.125Z" stroke="white" stroke-width="2" stroke-linecap="round" stroke-linejoin="round"/>
<path d="M16 2C13.0826 2 10.2847 3.15893 8.22183 5.22183C6.15893 7.28473 5 10.0826 5 13C5 15.6015 5.55275 17.3037 7.0625 19.1875L16 29.5L24.9375 19.1875C26.4473 17.3037 27 15.6015 27 13C27 10.0826 25.8411 7.28473 23.7782 5.22183C21.7153 3.15893 18.9174 2 16 2Z" stroke="white" stroke-width="2" stroke-linecap="round" stroke-linejoin="round"/>
</svg>
