<svg width="32" height="32" viewBox="0 0 32 32" fill="none" xmlns="http://www.w3.org/2000/svg">
<path fill-rule="evenodd" clip-rule="evenodd" d="M7.64371 2.72423C9.26638 1.1109 11.9384 1.39757 13.297 3.21357L14.9797 5.4589C16.0864 6.93623 15.9877 9.00023 14.6744 10.3056L14.357 10.6229C14.3212 10.7561 14.3176 10.896 14.3464 11.0309C14.4304 11.5749 14.885 12.7269 16.789 14.6202C18.693 16.5136 19.853 16.9669 20.405 17.0522C20.544 17.0818 20.688 17.0777 20.825 17.0402L21.369 16.4989C22.537 15.3389 24.329 15.1216 25.7744 15.9069L28.321 17.2936C30.5037 18.4776 31.0544 21.4429 29.2677 23.2202L27.373 25.1029C26.7757 25.6962 25.973 26.1909 24.9944 26.2829C22.581 26.5082 16.9584 26.2202 11.0477 20.3442C5.53171 14.8589 4.47304 10.0749 4.33838 7.71757C4.27171 6.52557 4.83438 5.51757 5.55171 4.80557L7.64371 2.72423ZM11.697 4.41223C11.021 3.50957 9.76238 3.43757 9.05304 4.1429L6.95971 6.2229C6.51971 6.66023 6.30904 7.1429 6.33571 7.60423C6.44238 9.47757 7.29571 13.7936 12.4584 18.9269C17.8744 24.3109 22.8757 24.4722 24.809 24.2909C25.2037 24.2549 25.5957 24.0496 25.9624 23.6856L27.8557 21.8016C28.6264 21.0362 28.457 19.6416 27.3664 19.0496L24.8197 17.6642C24.1157 17.2829 23.2917 17.4082 22.7797 17.9176L22.173 18.5216L21.4664 17.8122C22.173 18.5216 22.1717 18.5229 22.1704 18.5229L22.169 18.5256L22.165 18.5296L22.1557 18.5376L22.1357 18.5562C22.079 18.608 22.0184 18.6552 21.9544 18.6976C21.8477 18.7682 21.7064 18.8469 21.529 18.9122C21.169 19.0469 20.6917 19.1189 20.1024 19.0282C18.9464 18.8509 17.4144 18.0629 15.3784 16.0389C13.3437 14.0149 12.549 12.4922 12.3704 11.3376C12.2784 10.7482 12.3517 10.2709 12.4877 9.9109C12.5631 9.70859 12.6702 9.51956 12.805 9.3509L12.8477 9.30423L12.8664 9.28423L12.8744 9.27623L12.8784 9.27223L12.881 9.26957L13.265 8.88823C13.8357 8.3189 13.9157 7.37623 13.3784 6.65757L11.697 4.41223Z" fill="white"/>
</svg>
