<svg width="64" height="64" viewBox="0 0 64 64" fill="none" xmlns="http://www.w3.org/2000/svg">
<path d="M15.1688 3C9.0262 3 4 8.0262 4 14.1688V48.8312C4 54.9738 9.0262 60 15.1688 60H49.8312C55.9738 60 61 54.9738 61 48.8312V14.1688C61 8.0262 55.9738 3 49.8312 3H15.1688ZM21.5627 15.8608H32.8063C35.1414 15.8608 36.9152 15.9462 38.1191 16.1297C39.3231 16.3041 40.454 16.6778 41.5049 17.2464C42.642 17.8591 43.4962 18.684 44.0589 19.706C44.6214 20.7341 44.9067 21.9157 44.9067 23.2592C44.9067 24.8119 44.5192 26.1921 43.7383 27.4036C42.9649 28.6152 41.8918 29.5061 40.5271 30.0823V30.2479C42.4907 30.6649 44.0656 31.5038 45.2468 32.7806C46.4298 34.0588 47.0207 35.7794 47.0207 37.9402C47.0207 39.5217 46.7222 40.9168 46.1231 42.1131C45.5243 43.3095 44.7224 44.2954 43.708 45.0839C42.5116 46.024 41.1985 46.6875 39.7595 47.0894C38.3296 47.4897 36.5133 47.6896 34.3025 47.6896H21.5628L21.5627 15.8608ZM29.515 21.6954V28.4313H30.5213C31.886 28.4313 32.8502 28.4173 33.3976 28.3885C33.9451 28.3598 34.5148 28.2132 35.0985 27.9432C35.7323 27.6445 36.1787 27.2298 36.4183 26.7037C36.6593 26.1714 36.7834 25.5568 36.7834 24.8639C36.7834 24.3468 36.6518 23.8203 36.3879 23.2806C36.1256 22.7407 35.718 22.3462 35.1555 22.1051C34.6308 21.8716 34.0104 21.7485 33.2872 21.7257C32.5654 21.7029 31.4929 21.6955 30.0706 21.6955L29.515 21.6954ZM29.515 33.883V41.8513H29.946C32.0264 41.8513 33.4633 41.8356 34.2579 41.8068C35.0524 41.7781 35.871 41.5894 36.6943 41.2315C37.4252 40.9177 37.9499 40.4577 38.2866 39.8512C38.6217 39.2462 38.7889 38.5599 38.7889 37.7941C38.7889 36.8085 38.5941 36.0427 38.1922 35.4877C37.7919 34.9266 37.193 34.51 36.3969 34.2249C35.9147 34.0354 35.2429 33.9327 34.3968 33.9115C33.5507 33.8903 32.4135 33.883 30.9897 33.883H29.515Z" fill="white"/>
</svg>
