<svg width="32" height="32" viewBox="0 0 32 32" fill="none" xmlns="http://www.w3.org/2000/svg">
<path d="M7.5844 1.5C4.5131 1.5 2 4.0131 2 7.0844V24.4156C2 27.4869 4.5131 30 7.5844 30H24.9156C27.9869 30 30.5 27.4869 30.5 24.4156V7.0844C30.5 4.0131 27.9869 1.5 24.9156 1.5H7.5844ZM10.7814 7.9304H16.4032C17.5707 7.9304 18.4576 7.9731 19.0595 8.06485C19.6615 8.15205 20.227 8.3389 20.7525 8.6232C21.321 8.92955 21.7481 9.342 22.0294 9.853C22.3107 10.367 22.4534 10.9578 22.4534 11.6296C22.4534 12.4059 22.2596 13.0961 21.8692 13.7018C21.4825 14.3076 20.9459 14.7531 20.2635 15.0412V15.124C21.2453 15.3325 22.0328 15.7519 22.6234 16.3903C23.2149 17.0294 23.5103 17.8897 23.5103 18.9701C23.5103 19.7609 23.3611 20.4584 23.0616 21.0565C22.7622 21.6547 22.3612 22.1477 21.854 22.542C21.2558 23.012 20.5992 23.3438 19.8797 23.5447C19.1648 23.7449 18.2567 23.8448 17.1513 23.8448H10.7814L10.7814 7.9304ZM14.7575 10.8477V14.2156H15.2606C15.943 14.2156 16.4251 14.2087 16.6988 14.1943C16.9725 14.1799 17.2574 14.1066 17.5492 13.9716C17.8661 13.8222 18.0894 13.6149 18.2092 13.3518C18.3297 13.0857 18.3917 12.7784 18.3917 12.4319C18.3917 12.1734 18.3259 11.9101 18.194 11.6403C18.0628 11.3703 17.859 11.1731 17.5777 11.0526C17.3154 10.9358 17.0052 10.8743 16.6436 10.8629C16.2827 10.8515 15.7465 10.8477 15.0353 10.8477L14.7575 10.8477ZM14.7575 16.9415V20.9256H14.973C16.0132 20.9256 16.7317 20.9178 17.129 20.9034C17.5262 20.8891 17.9355 20.7947 18.3472 20.6157C18.7126 20.4588 18.9749 20.2289 19.1433 19.9256C19.3108 19.6231 19.3944 19.28 19.3944 18.8971C19.3944 18.4043 19.297 18.0214 19.0961 17.7439C18.8959 17.4633 18.5965 17.255 18.1985 17.1124C17.9574 17.0177 17.6215 16.9663 17.1984 16.9557C16.7754 16.9451 16.2068 16.9415 15.4949 16.9415H14.7575Z" fill="black"/>
</svg>
