<svg width="64" height="64" viewBox="0 0 64 64" fill="none" xmlns="http://www.w3.org/2000/svg">
<path d="M55.7998 16.9599C47.4398 3.99995 30.3198 0.159949 17.0798 8.19995C4.15981 16.2399 -0.000190258 33.76 8.35981 46.68L9.03981 47.72L6.23981 58.2L16.7198 55.4L17.7598 56.08C22.2798 58.52 27.1998 59.9199 32.0798 59.9199C37.3198 59.9199 42.5598 58.52 47.0798 55.72C59.9998 47.32 63.8398 30.1599 55.7998 16.8799V16.9599ZM48.4798 43.9199C47.0798 45.9999 45.3198 47.3999 42.8798 47.7599C41.4798 47.7599 39.7198 48.44 32.7598 45.68C26.8398 42.88 21.9198 38.32 18.4398 33.08C16.3598 30.64 15.2798 27.48 14.9598 24.32C14.9598 21.52 15.9998 19.0799 17.7598 17.3199C18.4398 16.6399 19.1598 16.28 19.8398 16.28H21.5998C22.2798 16.28 22.9998 16.2799 23.3598 17.6799C24.0398 19.4399 25.7998 23.64 25.7998 24C26.1598 24.36 25.9998 27.0399 24.3998 28.5599C23.5198 29.5599 23.3598 29.6 23.7198 30.32C25.1198 32.4 26.8798 34.5199 28.5998 36.2799C30.6798 38.0399 32.7998 39.4399 35.2398 40.4799C35.9198 40.8399 36.6398 40.8399 36.9998 40.1199C37.3598 39.4399 39.0798 37.6799 39.7998 36.9599C40.4798 36.2799 40.8398 36.2799 41.5598 36.5999L47.1598 39.4C47.8398 39.76 48.5598 40.0799 48.9198 40.4399C49.2798 41.4799 49.2798 42.8799 48.5598 43.9199H48.4798Z" fill="white"/>
</svg>
