<svg width="32" height="32" viewBox="0 0 32 32" fill="none" xmlns="http://www.w3.org/2000/svg">
<path d="M27.8999 8.47977C23.7199 1.99979 15.1599 0.0797925 8.5399 4.09979C2.07991 8.11977 -9.56059e-05 16.8798 4.1799 23.3398L4.5199 23.8598L3.1199 29.0998L8.3599 27.6998L8.8799 28.0398C11.1399 29.2598 13.5999 29.9598 16.0399 29.9598C18.6599 29.9598 21.2799 29.2598 23.5399 27.8598C29.9999 23.6598 31.9199 15.0798 27.8999 8.43977V8.47977ZM24.2399 21.9598C23.5399 22.9998 22.6599 23.6998 21.4399 23.8798C20.7399 23.8798 19.8599 24.2198 16.3799 22.8398C13.4199 21.4398 10.9599 19.1598 9.2199 16.5398C8.1799 15.3198 7.6399 13.7398 7.4799 12.1598C7.4799 10.7598 7.9999 9.53977 8.8799 8.65977C9.2199 8.31977 9.5799 8.13982 9.9199 8.13982H10.7999C11.1399 8.13982 11.4999 8.13977 11.6799 8.83977C12.0199 9.71977 12.8999 11.8198 12.8999 11.9998C13.0799 12.1798 12.9999 13.5198 12.1999 14.2798C11.7599 14.7798 11.6799 14.7998 11.8599 15.1598C12.5599 16.1998 13.4399 17.2598 14.2999 18.1398C15.3399 19.0198 16.3999 19.7198 17.6199 20.2398C17.9599 20.4198 18.3199 20.4198 18.4999 20.0598C18.6799 19.7198 19.5399 18.8398 19.8999 18.4798C20.2399 18.1398 20.4199 18.1398 20.7799 18.2998L23.5799 19.6998C23.9199 19.8798 24.2799 20.0398 24.4599 20.2198C24.6399 20.7398 24.6399 21.4398 24.2799 21.9598H24.2399Z" fill="black"/>
</svg>
