<svg width="96" height="96" viewBox="0 0 96 96" fill="none" xmlns="http://www.w3.org/2000/svg">
<path d="M90.5055 16.164C89.7157 15.3737 88.7777 14.7471 87.7453 14.3201C86.7128 13.8931 85.6063 13.674 84.489 13.6755C83.6295 13.6755 82.7685 13.8045 81.942 14.064C82.5092 12.2454 82.4507 10.2892 81.7758 8.50769C81.1009 6.72624 79.8485 5.2223 78.2186 4.23607C76.5888 3.24983 74.6754 2.83817 72.7842 3.06682C70.8929 3.29547 69.1329 4.15125 67.785 5.4975C63.0255 10.257 66.537 16.1655 66.171 19.1565C66.0465 20.175 64.533 22.209 62.7225 24.3255C56.694 19.038 50.721 15.2385 47.8095 15.945C46.155 16.347 41.892 19.7955 37.0035 24.309L75.7245 54.444C78.1335 51.588 79.7835 49.2975 80.052 48.189C80.7735 45.2145 76.7985 39.042 71.3325 32.883C73.446 31.1775 75.51 29.8245 76.7505 29.8245L76.8435 29.8275C76.9975 29.8085 77.158 29.7995 77.325 29.8005C79.083 29.8005 81.618 30.735 84.306 30.735C86.3775 30.735 88.539 30.18 90.5055 28.2135C91.2967 27.4223 91.9243 26.4831 92.3525 25.4493C92.7808 24.4156 93.0011 23.3077 93.0011 22.1887C93.0011 21.0698 92.7808 19.9619 92.3525 18.9282C91.9243 17.8944 91.2967 16.9552 90.5055 16.164ZM46.3005 20.5095L47.8005 19.0095L49.3005 20.5095L47.802 22.0095L46.3005 20.5095ZM49.6125 30.0675L48.1125 28.5675L49.6125 27.066L51.1125 28.566L49.6125 30.0675ZM51.5505 25.0095L49.3005 22.7595L51.5505 20.5095L53.8005 22.7595L51.5505 25.0095ZM56.424 31.215L54.924 29.715L56.424 28.215L57.924 29.715L56.424 31.215ZM88.3845 26.094C87.249 27.2295 85.9905 27.7365 84.306 27.7365C83.1135 27.7365 81.8745 27.4905 80.676 27.252C79.509 27.021 78.405 26.802 77.325 26.802C77.115 26.802 76.913 26.8105 76.719 26.8275C74.724 26.8455 72.048 28.4355 69.2775 30.6495C67.8811 29.1748 66.4409 27.7422 64.959 26.3535C67.5465 23.2935 68.97 20.994 69.15 19.5225C69.315 18.177 69.0405 16.791 68.748 15.324C68.0925 12.024 67.821 9.705 69.906 7.6185C70.4178 7.10394 71.0265 6.69596 71.6969 6.41815C72.3674 6.14034 73.0863 5.99822 73.812 6C74.5372 5.99862 75.2555 6.14093 75.9254 6.41873C76.5953 6.69653 77.2036 7.1043 77.715 7.6185C79.17 9.0735 79.6905 11.202 79.077 13.1715C78.914 13.6942 78.8972 14.2515 79.0283 14.7831C79.1594 15.3147 79.4335 15.8003 79.8209 16.1872C80.2083 16.5741 80.6942 16.8476 81.2259 16.9781C81.7577 17.1086 82.315 17.0911 82.8375 16.9275C83.3726 16.7605 83.9299 16.6755 84.4905 16.6755C85.962 16.6755 87.345 17.2485 88.386 18.285C89.4181 19.3224 89.9974 20.7264 89.9971 22.1898C89.9968 23.6532 89.417 25.057 88.3845 26.094ZM15.948 47.808C15.24 50.721 19.0395 56.6955 24.327 62.724C22.2105 64.533 20.1765 66.0465 19.158 66.171C18.9976 66.1892 18.8364 66.1987 18.675 66.1995C16.917 66.1995 14.382 65.265 11.6955 65.265C9.62399 65.265 7.46399 65.82 5.49749 67.7865C4.14929 69.1335 3.29179 70.8937 3.06218 72.7856C2.83257 74.6774 3.2441 76.5917 4.23096 78.222C5.21781 79.8524 6.72296 81.1047 8.50561 81.7785C10.2883 82.4524 12.2454 82.5089 14.064 81.939C13.5995 83.4229 13.5499 85.0056 13.9206 86.5156C14.2913 88.0256 15.0681 89.4054 16.167 90.5055C16.9577 91.2971 17.8968 91.9249 18.9305 92.3529C19.9642 92.781 21.0722 93.0009 22.191 93C23.3103 93.0013 24.4189 92.7816 25.4531 92.3535C26.4874 91.9254 27.427 91.2974 28.218 90.5055C32.9775 85.743 29.466 79.833 29.829 76.842C29.7585 75.6135 31.134 73.4985 32.883 71.3325C39.0435 76.8 45.216 80.7735 48.192 80.052C49.4595 79.7445 52.269 77.637 55.713 74.6385L21.363 40.29C18.3615 43.731 16.254 46.539 15.948 47.808ZM30.654 69.282C28.4685 72.021 26.8935 74.673 26.829 76.6785C26.7135 77.961 26.976 79.281 27.252 80.6745C27.909 83.976 28.182 86.298 26.097 88.3845C25.5845 88.8978 24.9755 89.3048 24.3052 89.5821C23.6349 89.8593 22.9164 90.0014 22.191 90C21.325 90.0008 20.4709 89.7976 19.6981 89.4067C18.9253 89.0159 18.2554 88.4485 17.7428 87.7505C17.2302 87.0525 16.8892 86.2435 16.7476 85.3892C16.6059 84.5348 16.6676 83.6591 16.9275 82.833C17.0902 82.3107 17.1071 81.7539 16.9762 81.2228C16.8453 80.6916 16.5717 80.2064 16.185 79.8195C15.7981 79.4322 15.3127 79.1582 14.7812 79.027C14.2498 78.8959 13.6926 78.9126 13.17 79.0755C12.6338 79.2423 12.0755 79.3267 11.514 79.326C10.7901 79.3278 10.0729 79.1864 9.40384 78.9099C8.73477 78.6334 8.127 78.2273 7.61549 77.715C6.57449 76.6695 5.99999 75.2835 5.99999 73.8105C5.99999 72.3375 6.57449 70.9515 7.61849 69.906C8.75399 68.7705 10.011 68.2635 11.694 68.2635C12.885 68.2635 14.124 68.5095 15.321 68.7465C16.488 68.9775 17.592 69.198 18.672 69.198C18.967 69.198 19.2495 69.1815 19.5195 69.1485C20.991 68.9685 23.2905 67.545 26.3505 64.9575C27.7409 66.4422 29.1761 67.8844 30.654 69.282ZM26.922 49.9515L28.422 51.4515L26.922 52.9515L25.422 51.4515L26.922 49.9515ZM23.421 49.389L21.921 50.8875L20.421 49.389L21.921 47.889L23.421 49.389ZM22.5465 38.943L58.002 72.597C63.4965 67.6035 69.9825 61.0395 74.505 55.866L34.5555 26.607C30.384 30.588 26.013 35.07 22.5465 38.943ZM33.0285 38.2815L31.5285 36.7815L33.0285 35.2815L34.5285 36.7815L33.0285 38.2815ZM43.5285 45.237L42.0285 46.737L40.5285 45.237L42.027 43.737L43.5285 45.237ZM38.2785 40.737L40.5285 42.987L38.2785 45.237L36.0285 42.987L38.2785 40.737Z" fill="black"/>
</svg>
