<svg width="96" height="96" viewBox="0 0 96 96" fill="none" xmlns="http://www.w3.org/2000/svg">
<g clip-path="url(#clip0_2024_145)">
<path d="M74.6667 80H42.6667V58.6667H37.3333V80H21.3333V58.6667H16V80C16 81.4145 16.5619 82.771 17.5621 83.7712C18.5623 84.7714 19.9188 85.3333 21.3333 85.3333H74.6667C76.0812 85.3333 77.4377 84.7714 78.4379 83.7712C79.4381 82.771 80 81.4145 80 80V58.6667H74.6667V80Z" fill="black"/>
<path d="M90.1067 35.3867L79.2267 13.6267C78.7851 12.7381 78.1045 11.9903 77.2612 11.4674C76.418 10.9445 75.4456 10.6672 74.4533 10.6667H21.5467C20.5544 10.6672 19.582 10.9445 18.7388 11.4674C17.8955 11.9903 17.2149 12.7381 16.7733 13.6267L5.89333 35.3867C5.52185 36.132 5.33007 36.9539 5.33333 37.7867V46C5.3309 47.2461 5.7649 48.4538 6.56 49.4133C7.73509 50.7604 9.1864 51.8386 10.8153 52.5748C12.4442 53.3111 14.2125 53.688 16 53.68C18.9167 53.6845 21.7445 52.676 24 50.8267C26.2555 52.677 29.0826 53.6883 32 53.6883C34.9174 53.6883 37.7445 52.677 40 50.8267C42.2555 52.677 45.0826 53.6883 48 53.6883C50.9174 53.6883 53.7445 52.677 56 50.8267C58.2555 52.677 61.0826 53.6883 64 53.6883C66.9174 53.6883 69.7445 52.677 72 50.8267C74.5177 52.8939 77.739 53.9045 80.9864 53.6459C84.2338 53.3873 87.2545 51.8797 89.4133 49.44C90.218 48.4842 90.6616 47.2761 90.6667 46.0267V37.7867C90.6699 36.9539 90.4781 36.132 90.1067 35.3867ZM40 38.4V42.4533L37.8133 45.3333C37.1421 46.2483 36.2648 46.9923 35.2525 47.5051C34.2402 48.0179 33.1214 48.2851 31.9867 48.2851C30.8519 48.2851 29.7331 48.0179 28.7208 47.5051C27.7085 46.9923 26.8313 46.2483 26.16 45.3333L24 42.3467V38.4L30.9067 16H42.6667L40 38.4ZM72 42.3467L69.84 45.3333C69.1687 46.2483 68.2915 46.9923 67.2792 47.5051C66.2669 48.0179 65.1481 48.2851 64.0133 48.2851C62.8786 48.2851 61.7598 48.0179 60.7475 47.5051C59.7352 46.9923 58.8579 46.2483 58.1867 45.3333L56 42.3467V38.4L53.3333 16H65.2L72 38.4V42.3467Z" fill="black"/>
</g>
<defs>
<clipPath id="clip0_2024_145">
<rect width="96" height="96" fill="white"/>
</clipPath>
</defs>
</svg>
