<svg width="96" height="96" viewBox="0 0 96 96" fill="none" xmlns="http://www.w3.org/2000/svg">
<path d="M36.61 26C36.496 22.78 36.588 19.37 37.722 16.706C38.32 15.306 39.182 14.174 40.43 13.372C41.684 12.568 43.484 12 46.116 12C49.066 12 51.524 13.072 53.284 14.188C54.158 14.744 54.84 15.298 55.298 15.708C55.5118 15.9005 55.7186 16.1006 55.918 16.308L55.938 16.328V16.33C56.1124 16.5265 56.3238 16.6866 56.5601 16.8014C56.7964 16.9162 57.053 16.9833 57.3152 16.9989C57.5775 17.0145 57.8402 16.9783 58.0884 16.8923C58.3367 16.8064 58.5656 16.6724 58.762 16.498C58.9585 16.3236 59.1187 16.1122 59.2334 15.8759C59.3482 15.6396 59.4153 15.383 59.4309 15.1208C59.4465 14.8586 59.4103 14.5958 59.3244 14.3476C59.2384 14.0993 59.1044 13.8705 58.93 13.674L57.46 14.974C58.93 13.674 58.926 13.67 58.926 13.67L58.918 13.66L58.898 13.64C58.8193 13.5509 58.7379 13.4642 58.654 13.38C58.4318 13.1566 58.203 12.9399 57.968 12.73C57.1737 12.0235 56.3244 11.3815 55.428 10.81C53.248 9.432 50.048 8 46.116 8C42.904 8 40.31 8.698 38.27 10.006C36.224 11.32 34.89 13.146 34.042 15.138C32.566 18.604 32.494 22.734 32.606 26H22C20.894 26 19.988 26.9 20.114 27.996C21.344 38.756 32.434 47.282 46.23 47.956V64H50.23V47.932C53.5592 47.7334 56.841 47.046 59.97 45.892C59.99 46.1213 60 46.3593 60 46.606C60 48.13 58.754 49.954 56.198 51.538C54.8875 52.3387 53.4756 52.9602 52 53.386V57.518C54.226 57.0032 56.3541 56.132 58.302 54.938C61.248 53.12 64 50.246 64 46.608C64 45.788 63.924 44.978 63.754 44.192C70.488 40.584 75.114 34.728 75.886 27.998C76.012 26.902 75.104 26.002 74 26.002L36.61 26Z" fill="black"/>
<path d="M60 78C60 80.33 59.28 82.376 57.962 84H64V88H32V84H46.23V76H50.23V83.828C51.834 83.566 53.102 83.02 54.014 82.302C55.264 81.322 56 79.91 56 78C56 76.09 55.264 74.68 54.014 73.698C52.714 72.674 50.69 71.998 48 71.998C44.966 71.998 41.6 71.76 38.938 70.578C37.57 69.97 36.308 69.078 35.392 67.772C34.468 66.452 34 64.85 34 63C34 61.15 34.468 59.548 35.392 58.228C36.308 56.922 37.572 56.03 38.938 55.422C40.458 54.746 42.212 54.378 44 54.188V58.214C42.684 58.38 41.516 58.654 40.562 59.078C39.68 59.47 39.068 59.954 38.67 60.522C38.282 61.076 38 61.85 38 63C38 64.15 38.28 64.924 38.67 65.478C39.068 66.046 39.68 66.53 40.562 66.922C42.402 67.74 45.034 68 48 68C51.308 68 54.288 68.826 56.486 70.552C58.736 72.32 60 74.91 60 78Z" fill="black"/>
</svg>
