<svg width="96" height="96" viewBox="0 0 96 96" fill="none" xmlns="http://www.w3.org/2000/svg">
<path d="M54.48 33.528L62.344 25.66C61.4136 24.7299 60.7269 23.5847 60.3448 22.3259C59.9627 21.067 59.897 19.7334 60.1534 18.443C60.4098 17.1527 60.9805 15.9455 61.8149 14.9284C62.6493 13.9113 63.7216 13.1156 64.9369 12.6119C66.1522 12.1082 67.473 11.912 68.7822 12.0406C70.0915 12.1693 71.3488 12.6188 72.4429 13.3494C73.5369 14.08 74.4339 15.0692 75.0543 16.2292C75.6748 17.3893 75.9996 18.6844 76 20C77.3159 19.9991 78.6117 20.3227 79.7726 20.9423C80.9335 21.562 81.9236 22.4584 82.6552 23.5521C83.3869 24.6459 83.8374 25.9032 83.9669 27.2128C84.0964 28.5223 83.9008 29.8435 83.3976 31.0594C82.8944 32.2753 82.099 33.3482 81.0819 34.1832C80.0648 35.0182 78.8575 35.5894 77.5669 35.8462C76.2763 36.103 74.9423 36.0375 73.6831 35.6554C72.4239 35.2734 71.2783 34.5866 70.348 33.656L63.068 40.94M30 64L34 68M23.616 74.384C34.548 85.32 47.216 90.384 51.896 85.7C56.584 81.012 51.52 68.348 40.584 57.416C29.652 46.48 16.984 41.416 12.304 46.1C7.61598 50.788 12.68 63.452 23.616 74.384Z" stroke="black" stroke-width="8" stroke-linecap="round" stroke-linejoin="round"/>
<path d="M51.9 85.7C67.52 70.076 71.32 48.548 60.384 37.616C49.452 26.68 27.924 30.48 12.304 46.1" stroke="black" stroke-width="8" stroke-linecap="round" stroke-linejoin="round"/>
</svg>
