<svg width="96" height="96" viewBox="0 0 96 96" fill="none" xmlns="http://www.w3.org/2000/svg">
<path d="M43.872 9.29999C45.0705 8.42488 46.516 7.95328 48 7.95328C49.484 7.95328 50.9295 8.42488 52.128 9.29999L81.812 30.964C85.72 33.812 83.708 39.992 78.876 40.004H17.12C12.288 39.992 10.28 33.812 14.184 30.964L43.872 9.29999ZM52 25C52 23.9391 51.5786 22.9217 50.8284 22.1716C50.0783 21.4214 49.0609 21 48 21C46.9391 21 45.9217 21.4214 45.1716 22.1716C44.4214 22.9217 44 23.9391 44 25C44 26.0609 44.4214 27.0783 45.1716 27.8284C45.9217 28.5786 46.9391 29 48 29C49.0609 29 50.0783 28.5786 50.8284 27.8284C51.5786 27.0783 52 26.0609 52 25ZM45 64H37V44H45V64ZM59 64H51V44H59V64ZM74 64H65V44H74V64ZM75 68H21C18.6131 68 16.3239 68.9482 14.636 70.636C12.9482 72.3239 12 74.613 12 77V79C12 80.66 13.344 82 15 82H81C81.7956 82 82.5587 81.6839 83.1213 81.1213C83.6839 80.5587 84 79.7956 84 79V77C84 74.613 83.0518 72.3239 81.364 70.636C79.6761 68.9482 77.3869 68 75 68ZM31 64H22V44H31V64Z" fill="black"/>
</svg>
