<svg width="96" height="96" viewBox="0 0 96 96" fill="none" xmlns="http://www.w3.org/2000/svg">
<path d="M80 32H16C12.6863 32 10 34.6863 10 38V78C10 81.3137 12.6863 84 16 84H80C83.3137 84 86 81.3137 86 78V38C86 34.6863 83.3137 32 80 32Z" fill="#2F88FF" stroke="black" stroke-width="8" stroke-linejoin="round"/>
<path d="M38 16H58V8H38V16ZM60 18V32H68V18H60ZM36 32V18H28V32H36ZM58 16C59.1046 16 60 16.8954 60 18H68C68 12.4772 63.5228 8 58 8V16ZM38 8C32.4772 8 28 12.4772 28 18H36C36 16.8954 36.8954 16 38 16V8Z" fill="black"/>
<path d="M36 58H60" stroke="white" stroke-width="8" stroke-linecap="round" stroke-linejoin="round"/>
<path d="M48 46V70" stroke="white" stroke-width="8" stroke-linecap="round" stroke-linejoin="round"/>
</svg>
