<svg width="104" height="104" viewBox="0 0 104 104" fill="none" xmlns="http://www.w3.org/2000/svg">
<g clip-path="url(#clip0_2028_2)" filter="url(#filter0_d_2028_2)">
<path d="M52 0C39.2725 0 27.055 5.06025 18.0625 14.0588C9.06079 23.0609 4.00258 35.2694 4 48C4 60.7252 9.0625 72.9427 18.0625 81.9412C27.055 90.9397 39.2725 96 52 96C64.7275 96 76.945 90.9397 85.9375 81.9412C94.9375 72.9427 100 60.7252 100 48C100 35.2748 94.9375 23.0573 85.9375 14.0588C76.945 5.06025 64.7275 0 52 0Z" fill="url(#paint0_linear_2028_2)"/>
<path d="M25.7275 47.493C39.7225 41.397 49.0525 37.378 53.7175 35.436C67.0525 29.8912 69.82 28.9282 71.6275 28.8956C72.025 28.8892 72.91 28.9875 73.4875 29.4544C73.9675 29.8481 74.1025 30.3806 74.17 30.7545C74.23 31.128 74.3125 31.9793 74.245 32.6438C73.525 40.2338 70.3975 58.6522 68.8075 67.1535C68.14 70.7505 66.8125 71.9565 65.53 72.0742C62.74 72.3307 60.625 70.2322 57.925 68.463C53.7025 65.6932 51.3175 63.9697 47.215 61.2675C42.475 58.1445 45.55 56.4277 48.25 53.6227C48.955 52.8885 61.24 41.7172 61.4725 40.704C61.5025 40.5772 61.5325 40.1047 61.2475 39.8557C60.97 39.606 60.5575 39.6915 60.2575 39.759C59.83 39.855 53.0875 44.316 40.0075 53.1413C38.095 54.4568 36.3625 55.098 34.8025 55.0642C33.0925 55.0275 29.7925 54.0952 27.34 53.2987C24.34 52.3215 21.9475 51.8048 22.1575 50.145C22.2625 49.281 23.455 48.3968 25.7275 47.493Z" fill="white"/>
</g>
<defs>
<filter id="filter0_d_2028_2" x="0" y="0" width="104" height="104" filterUnits="userSpaceOnUse" color-interpolation-filters="sRGB">
<feFlood flood-opacity="0" result="BackgroundImageFix"/>
<feColorMatrix in="SourceAlpha" type="matrix" values="0 0 0 0 0 0 0 0 0 0 0 0 0 0 0 0 0 0 127 0" result="hardAlpha"/>
<feOffset dy="4"/>
<feGaussianBlur stdDeviation="2"/>
<feComposite in2="hardAlpha" operator="out"/>
<feColorMatrix type="matrix" values="0 0 0 0 0 0 0 0 0 0 0 0 0 0 0 0 0 0 0.25 0"/>
<feBlend mode="normal" in2="BackgroundImageFix" result="effect1_dropShadow_2028_2"/>
<feBlend mode="normal" in="SourceGraphic" in2="effect1_dropShadow_2028_2" result="shape"/>
</filter>
<linearGradient id="paint0_linear_2028_2" x1="4804" y1="0" x2="4804" y2="9600" gradientUnits="userSpaceOnUse">
<stop stop-color="#2AABEE"/>
<stop offset="1" stop-color="#229ED9"/>
</linearGradient>
<clipPath id="clip0_2028_2">
<rect width="96" height="96" fill="white" transform="translate(4)"/>
</clipPath>
</defs>
</svg>
