<svg width="96" height="96" viewBox="0 0 96 96" fill="none" xmlns="http://www.w3.org/2000/svg">
<path d="M2.03484 47.4255C2.0326 55.4913 4.14014 63.3671 8.14758 70.3088L1.65158 94.0268L25.924 87.6625C32.6374 91.3172 40.1593 93.2322 47.803 93.2327H47.8231C73.0566 93.2327 93.5973 72.6995 93.608 47.4616C93.6129 35.232 88.8546 23.7321 80.2094 15.0802C71.5656 6.42902 60.0698 1.66214 47.8213 1.65656C22.5848 1.65656 2.04563 22.1886 2.03521 47.4255" fill="url(#paint0_linear_2028_5)"/>
<path d="M35.9753 27.59C35.0875 25.6167 34.1532 25.5769 33.3089 25.5423C32.6175 25.5126 31.8272 25.5148 31.0376 25.5148C30.2473 25.5148 28.9632 25.8121 27.8778 26.9972C26.7913 28.1834 23.7297 31.05 23.7297 36.8804C23.7297 42.7107 27.9764 48.3457 28.5684 49.1371C29.1612 49.9271 36.7667 62.2746 48.8121 67.0247C58.8229 70.9723 60.8601 70.1872 63.0328 69.9892C65.2058 69.792 70.0445 67.1234 71.0317 64.3561C72.0196 61.5892 72.0196 59.2175 71.7234 58.7219C71.4272 58.2281 70.6369 57.9315 69.4518 57.3392C68.2666 56.7468 62.44 53.8794 61.3539 53.4839C60.2674 53.0887 59.4774 52.8915 58.6871 54.0781C57.8968 55.2629 55.6274 57.9315 54.9357 58.7219C54.2447 59.514 53.553 59.6127 52.3682 59.0199C51.1824 58.4253 47.3658 57.1754 42.8378 53.1386C39.3148 49.9974 36.9364 46.1183 36.2451 44.9317C35.5537 43.747 36.171 43.1047 36.7653 42.5142C37.2977 41.9833 37.9507 41.1304 38.5439 40.4387C39.1347 39.7466 39.332 39.2528 39.7271 38.4625C40.1227 37.6714 39.9247 36.9794 39.6289 36.3866C39.332 35.7939 37.0291 29.933 35.9753 27.59Z" fill="white"/>
<defs>
<linearGradient id="paint0_linear_2028_5" x1="4599.48" y1="9238.68" x2="4599.48" y2="1.65656" gradientUnits="userSpaceOnUse">
<stop stop-color="#1FAF38"/>
<stop offset="1" stop-color="#60D669"/>
</linearGradient>
</defs>
</svg>
