<svg width="138" height="25" viewBox="0 0 138 25" fill="none" xmlns="http://www.w3.org/2000/svg">
<g clip-path="url(#clip0_2044_108)">
<path d="M13.4243 4.72893C14.7752 5.83912 15.4506 7.60722 15.4506 9.95097C15.4506 12.2947 14.7329 14.0217 13.3399 15.0908C11.9468 16.1598 9.79382 16.7355 6.92322 16.7355H4.34812V22.0398H0V3.00195H6.881C9.87825 3.00195 12.0312 3.57761 13.4243 4.72893ZM10.216 12.1714C10.7225 11.5957 10.9758 10.7733 10.9758 9.66314C10.9758 8.55294 10.6381 7.77169 9.96268 7.31939C9.28724 6.86708 8.23188 6.62037 6.79657 6.62037H4.3059V12.9937H7.21872C8.69624 13.0348 9.70939 12.747 10.216 12.1714Z" fill="white"/>
<path d="M34.4055 9.29307C34.4055 12.3358 33.1813 14.3095 30.6906 15.173L35.6297 21.9575H30.2685L25.9626 15.9131H22.9653V21.9575H18.6172V3.00195H26.0048C29.0442 3.00195 31.1972 3.49537 32.4636 4.48222C33.7301 5.51018 34.4055 7.1138 34.4055 9.29307ZM29.1709 11.5546C29.7197 11.1023 29.973 10.321 29.973 9.33419C29.973 8.30623 29.6775 7.60722 29.1287 7.23715C28.5799 6.86709 27.6089 6.66149 26.2158 6.66149H22.9653V12.2947H26.1314C27.6089 12.2536 28.6221 12.048 29.1709 11.5546Z" fill="white"/>
<path d="M77.3391 3.00195V6.70261H68.3052V10.6089H76.2415V14.3095H68.3052V21.9164H63.957V3.00195H77.3391Z" fill="white"/>
<path d="M97.9386 10.0332L92.6618 20.395H90.0867L84.852 10.0332V21.9575H80.5039V3.00195H86.3718L91.3953 13.4049L96.4189 3.00195H102.245V21.9575H97.9386V10.0332Z" fill="white"/>
<path d="M119.468 3.00195V6.78485H109.758V10.6911H117.821V14.3095H109.758V18.2569H119.763V21.9987H105.41V3.00195H119.468Z" fill="white"/>
<path d="M132.468 6.66149V21.9575H128.12V6.66149H122.59V3.00195H137.956V6.66149H132.468Z" fill="white"/>
<path d="M51.4189 6.45559L54.2473 8.05921L55.0493 8.51151L55.0916 8.55263L60.4528 11.5954V7.11349C60.4528 6.45559 60.1151 5.87993 59.5241 5.55099L50.1102 0.246711C49.8147 0.0822368 49.5192 0 49.1815 0C48.8438 0 48.5483 0.0822368 48.2528 0.246711L38.8389 5.55099C38.2479 5.87993 37.9102 6.49671 37.9102 7.11349V10.403L42.8071 13.199V9.45724C42.8071 9.08717 43.0181 8.71711 43.3559 8.51151L48.6749 5.50987C48.8438 5.42763 49.0126 5.38651 49.2237 5.38651C49.4348 5.38651 49.6036 5.42763 49.7725 5.50987L51.4189 6.45559Z" fill="#4AC8FF"/>
<path d="M55.5974 11.8008V15.5426C55.5974 15.9126 55.3863 16.2827 55.0486 16.4883L49.7295 19.4899C49.5607 19.5722 49.3918 19.6133 49.1807 19.6133C48.9697 19.6133 48.8008 19.5722 48.6319 19.4899L43.3129 16.4883C43.2707 16.4883 43.2707 16.4472 43.2285 16.4472L37.8672 13.4044V17.8863C37.8672 18.5442 38.2049 19.1199 38.7959 19.4488L48.252 24.7531C48.5475 24.9176 48.843 24.9998 49.1807 24.9998C49.5185 24.9998 49.814 24.9176 50.1095 24.7531L59.5656 19.4488C60.1566 19.1199 60.4943 18.5031 60.4943 17.8863V14.5968L55.5974 11.8008Z" fill="white"/>
</g>
<defs>
<clipPath id="clip0_2044_108">
<rect width="138" height="25" fill="white"/>
</clipPath>
</defs>
</svg>
