<svg width="305" height="86" viewBox="0 0 305 86" fill="none" xmlns="http://www.w3.org/2000/svg">
<path d="M4.55114 70V17.6364H25.2102C29.1818 17.6364 32.5653 18.3949 35.3608 19.9119C38.1563 21.4119 40.2869 23.5 41.7528 26.1761C43.2358 28.8352 43.9773 31.9034 43.9773 35.3807C43.9773 38.858 43.2273 41.9261 41.7273 44.5852C40.2273 47.2443 38.054 49.3153 35.2074 50.7983C32.3778 52.2812 28.9517 53.0227 24.929 53.0227H11.7614V44.1506H23.1392C25.2699 44.1506 27.0256 43.7841 28.4062 43.0511C29.804 42.3011 30.8438 41.2699 31.5256 39.9574C32.2244 38.6278 32.5739 37.1023 32.5739 35.3807C32.5739 33.642 32.2244 32.125 31.5256 30.8295C30.8438 29.517 29.804 28.5028 28.4062 27.7869C27.0085 27.054 25.2358 26.6875 23.0881 26.6875H15.6222V70H4.55114ZM50.9638 70V30.7273H61.5234V37.5795H61.9325C62.6484 35.142 63.8501 33.3011 65.5376 32.0568C67.2251 30.7955 69.1683 30.1648 71.3672 30.1648C71.9126 30.1648 72.5007 30.1989 73.1314 30.267C73.7621 30.3352 74.3161 30.429 74.7933 30.5483V40.2131C74.282 40.0597 73.5746 39.9233 72.6712 39.804C71.7678 39.6847 70.9411 39.625 70.1911 39.625C68.5888 39.625 67.157 39.9744 65.8956 40.6733C64.6513 41.3551 63.6626 42.3097 62.9297 43.5369C62.2138 44.7642 61.8558 46.179 61.8558 47.7812V70H50.9638ZM96.3409 70.767C92.3693 70.767 88.9347 69.9233 86.0369 68.2358C83.1563 66.5312 80.9318 64.1619 79.3636 61.1278C77.7955 58.0767 77.0114 54.5398 77.0114 50.517C77.0114 46.4602 77.7955 42.9148 79.3636 39.8807C80.9318 36.8295 83.1563 34.4602 86.0369 32.7727C88.9347 31.0682 92.3693 30.2159 96.3409 30.2159C100.312 30.2159 103.739 31.0682 106.619 32.7727C109.517 34.4602 111.75 36.8295 113.318 39.8807C114.886 42.9148 115.67 46.4602 115.67 50.517C115.67 54.5398 114.886 58.0767 113.318 61.1278C111.75 64.1619 109.517 66.5312 106.619 68.2358C103.739 69.9233 100.312 70.767 96.3409 70.767ZM96.392 62.3295C98.1989 62.3295 99.7074 61.8182 100.918 60.7955C102.128 59.7557 103.04 58.3409 103.653 56.5511C104.284 54.7614 104.599 52.7244 104.599 50.4403C104.599 48.1562 104.284 46.1193 103.653 44.3295C103.04 42.5398 102.128 41.125 100.918 40.0852C99.7074 39.0455 98.1989 38.5256 96.392 38.5256C94.5682 38.5256 93.0341 39.0455 91.7898 40.0852C90.5625 41.125 89.6335 42.5398 89.0028 44.3295C88.3892 46.1193 88.0824 48.1562 88.0824 50.4403C88.0824 52.7244 88.3892 54.7614 89.0028 56.5511C89.6335 58.3409 90.5625 59.7557 91.7898 60.7955C93.0341 61.8182 94.5682 62.3295 96.392 62.3295ZM143.872 30.7273V38.9091H119.634V30.7273H143.872ZM125.182 70V27.8892C125.182 25.0426 125.736 22.6818 126.844 20.8068C127.969 18.9318 129.503 17.5256 131.446 16.5881C133.389 15.6506 135.597 15.1818 138.068 15.1818C139.739 15.1818 141.264 15.3097 142.645 15.5653C144.043 15.821 145.082 16.0511 145.764 16.2557L143.821 24.4375C143.395 24.3011 142.866 24.1733 142.236 24.054C141.622 23.9347 140.991 23.875 140.344 23.875C138.741 23.875 137.625 24.25 136.994 25C136.364 25.733 136.048 26.7642 136.048 28.0938V70H125.182ZM150.526 70V30.7273H160.907V37.6562H161.367C162.185 35.3551 163.549 33.5398 165.458 32.2102C167.367 30.8807 169.651 30.2159 172.31 30.2159C175.004 30.2159 177.296 30.8892 179.188 32.2358C181.08 33.5653 182.342 35.3722 182.972 37.6562H183.381C184.183 35.4062 185.631 33.608 187.728 32.2614C189.842 30.8977 192.339 30.2159 195.219 30.2159C198.884 30.2159 201.859 31.3835 204.143 33.7188C206.444 36.0369 207.594 39.3267 207.594 43.5881V70H196.728V45.7358C196.728 43.554 196.148 41.9176 194.989 40.8267C193.83 39.7358 192.381 39.1903 190.643 39.1903C188.665 39.1903 187.123 39.821 186.015 41.0824C184.907 42.3267 184.353 43.9716 184.353 46.017V70H173.793V45.5057C173.793 43.5795 173.239 42.0455 172.131 40.9034C171.04 39.7614 169.6 39.1903 167.81 39.1903C166.6 39.1903 165.509 39.4972 164.538 40.1108C163.583 40.7074 162.825 41.5511 162.262 42.642C161.7 43.7159 161.418 44.9773 161.418 46.4261V70H150.526ZM234.096 70.767C230.056 70.767 226.579 69.9489 223.664 68.3125C220.766 66.6591 218.533 64.3239 216.965 61.3068C215.397 58.2727 214.613 54.6847 214.613 50.5426C214.613 46.5028 215.397 42.9574 216.965 39.9062C218.533 36.8551 220.741 34.4773 223.587 32.7727C226.451 31.0682 229.809 30.2159 233.661 30.2159C236.252 30.2159 238.664 30.6335 240.897 31.4688C243.147 32.2869 245.107 33.5227 246.778 35.1761C248.465 36.8295 249.778 38.9091 250.715 41.4148C251.653 43.9034 252.121 46.8182 252.121 50.1591V53.1506H218.96V46.4006H241.869C241.869 44.8324 241.528 43.4432 240.846 42.233C240.164 41.0227 239.218 40.0767 238.008 39.3949C236.815 38.696 235.425 38.3466 233.84 38.3466C232.187 38.3466 230.721 38.7301 229.442 39.4972C228.181 40.2472 227.192 41.2614 226.477 42.5398C225.761 43.8011 225.394 45.2074 225.377 46.7585V53.1761C225.377 55.1193 225.735 56.7983 226.451 58.2131C227.184 59.6278 228.215 60.7188 229.545 61.4858C230.874 62.2528 232.451 62.6364 234.275 62.6364C235.485 62.6364 236.593 62.4659 237.599 62.125C238.604 61.7841 239.465 61.2727 240.181 60.5909C240.897 59.9091 241.442 59.0739 241.817 58.0852L251.891 58.75C251.38 61.1705 250.332 63.2841 248.746 65.0909C247.178 66.8807 245.15 68.2784 242.661 69.2841C240.19 70.2727 237.335 70.767 234.096 70.767ZM273.701 70.6392C270.718 70.6392 268.016 69.8722 265.596 68.3381C263.192 66.7869 261.283 64.5114 259.869 61.5114C258.471 58.4943 257.772 54.7955 257.772 50.4148C257.772 45.9148 258.496 42.1733 259.945 39.1903C261.394 36.1903 263.32 33.9489 265.724 32.4659C268.144 30.9659 270.795 30.2159 273.675 30.2159C275.874 30.2159 277.707 30.5909 279.173 31.3409C280.656 32.0739 281.849 32.9943 282.752 34.1023C283.673 35.1932 284.371 36.267 284.849 37.3239H285.181V17.6364H296.048V70H285.309V63.7102H284.849C284.337 64.8011 283.613 65.8835 282.675 66.9574C281.755 68.0142 280.553 68.892 279.07 69.5909C277.604 70.2898 275.815 70.6392 273.701 70.6392ZM277.153 61.9716C278.908 61.9716 280.391 61.4943 281.602 60.5398C282.829 59.5682 283.766 58.2131 284.414 56.4744C285.079 54.7358 285.411 52.6989 285.411 50.3636C285.411 48.0284 285.087 46 284.44 44.2784C283.792 42.5568 282.854 41.2273 281.627 40.2898C280.4 39.3523 278.908 38.8835 277.153 38.8835C275.363 38.8835 273.854 39.3693 272.627 40.3409C271.4 41.3125 270.471 42.6591 269.84 44.3807C269.21 46.1023 268.894 48.0966 268.894 50.3636C268.894 52.6477 269.21 54.6676 269.84 56.4233C270.488 58.1619 271.417 59.5256 272.627 60.5142C273.854 61.4858 275.363 61.9716 277.153 61.9716Z" fill="#00AAFF"/>
<path d="M6.56005 70V17.6364H27.2191C31.1907 17.6364 34.5743 18.3949 37.3697 19.9119C40.1652 21.4119 42.2958 23.5 43.7618 26.1761C45.2447 28.8352 45.9862 31.9034 45.9862 35.3807C45.9862 38.858 45.2362 41.9261 43.7362 44.5852C42.2362 47.2443 40.0629 49.3153 37.2163 50.7983C34.3868 52.2812 30.9606 53.0227 26.9379 53.0227H13.7703V44.1506H25.1481C27.2788 44.1506 29.0345 43.7841 30.4152 43.0511C31.8129 42.3011 32.8527 41.2699 33.5345 39.9574C34.2333 38.6278 34.5828 37.1023 34.5828 35.3807C34.5828 33.642 34.2333 32.125 33.5345 30.8295C32.8527 29.517 31.8129 28.5028 30.4152 27.7869C29.0174 27.054 27.2447 26.6875 25.097 26.6875H17.6311V70H6.56005ZM52.9727 70V30.7273H63.5323V37.5795H63.9414C64.6573 35.142 65.8591 33.3011 67.5466 32.0568C69.2341 30.7955 71.1772 30.1648 73.3761 30.1648C73.9216 30.1648 74.5096 30.1989 75.1403 30.267C75.771 30.3352 76.325 30.429 76.8022 30.5483V40.2131C76.2909 40.0597 75.5835 39.9233 74.6801 39.804C73.7767 39.6847 72.95 39.625 72.2 39.625C70.5977 39.625 69.1659 39.9744 67.9045 40.6733C66.6602 41.3551 65.6716 42.3097 64.9386 43.5369C64.2227 44.7642 63.8647 46.179 63.8647 47.7812V70H52.9727ZM98.3498 70.767C94.3782 70.767 90.9436 69.9233 88.0458 68.2358C85.1652 66.5312 82.9407 64.1619 81.3725 61.1278C79.8044 58.0767 79.0203 54.5398 79.0203 50.517C79.0203 46.4602 79.8044 42.9148 81.3725 39.8807C82.9407 36.8295 85.1652 34.4602 88.0458 32.7727C90.9436 31.0682 94.3782 30.2159 98.3498 30.2159C102.321 30.2159 105.748 31.0682 108.628 32.7727C111.526 34.4602 113.759 36.8295 115.327 39.8807C116.895 42.9148 117.679 46.4602 117.679 50.517C117.679 54.5398 116.895 58.0767 115.327 61.1278C113.759 64.1619 111.526 66.5312 108.628 68.2358C105.748 69.9233 102.321 70.767 98.3498 70.767ZM98.401 62.3295C100.208 62.3295 101.716 61.8182 102.927 60.7955C104.137 59.7557 105.049 58.3409 105.662 56.5511C106.293 54.7614 106.608 52.7244 106.608 50.4403C106.608 48.1562 106.293 46.1193 105.662 44.3295C105.049 42.5398 104.137 41.125 102.927 40.0852C101.716 39.0455 100.208 38.5256 98.401 38.5256C96.5771 38.5256 95.043 39.0455 93.7987 40.0852C92.5714 41.125 91.6424 42.5398 91.0118 44.3295C90.3981 46.1193 90.0913 48.1562 90.0913 50.4403C90.0913 52.7244 90.3981 54.7614 91.0118 56.5511C91.6424 58.3409 92.5714 59.7557 93.7987 60.7955C95.043 61.8182 96.5771 62.3295 98.401 62.3295ZM145.881 30.7273V38.9091H121.642V30.7273H145.881ZM127.191 70V27.8892C127.191 25.0426 127.745 22.6818 128.853 20.8068C129.978 18.9318 131.512 17.5256 133.455 16.5881C135.398 15.6506 137.606 15.1818 140.077 15.1818C141.748 15.1818 143.273 15.3097 144.654 15.5653C146.052 15.821 147.091 16.0511 147.773 16.2557L145.83 24.4375C145.404 24.3011 144.875 24.1733 144.245 24.054C143.631 23.9347 143 23.875 142.353 23.875C140.75 23.875 139.634 24.25 139.003 25C138.373 25.733 138.057 26.7642 138.057 28.0938V70H127.191ZM152.535 70V30.7273H162.916V37.6562H163.376C164.194 35.3551 165.558 33.5398 167.467 32.2102C169.376 30.8807 171.66 30.2159 174.319 30.2159C177.012 30.2159 179.305 30.8892 181.197 32.2358C183.089 33.5653 184.351 35.3722 184.981 37.6562H185.39C186.191 35.4062 187.64 33.608 189.737 32.2614C191.851 30.8977 194.348 30.2159 197.228 30.2159C200.893 30.2159 203.868 31.3835 206.152 33.7188C208.453 36.0369 209.603 39.3267 209.603 43.5881V70H198.737V45.7358C198.737 43.554 198.157 41.9176 196.998 40.8267C195.839 39.7358 194.39 39.1903 192.652 39.1903C190.674 39.1903 189.132 39.821 188.024 41.0824C186.916 42.3267 186.362 43.9716 186.362 46.017V70H175.802V45.5057C175.802 43.5795 175.248 42.0455 174.14 40.9034C173.049 39.7614 171.609 39.1903 169.819 39.1903C168.609 39.1903 167.518 39.4972 166.547 40.1108C165.592 40.7074 164.833 41.5511 164.271 42.642C163.708 43.7159 163.427 44.9773 163.427 46.4261V70H152.535ZM236.105 70.767C232.065 70.767 228.588 69.9489 225.673 68.3125C222.775 66.6591 220.542 64.3239 218.974 61.3068C217.406 58.2727 216.622 54.6847 216.622 50.5426C216.622 46.5028 217.406 42.9574 218.974 39.9062C220.542 36.8551 222.75 34.4773 225.596 32.7727C228.46 31.0682 231.818 30.2159 235.67 30.2159C238.261 30.2159 240.673 30.6335 242.906 31.4688C245.156 32.2869 247.116 33.5227 248.787 35.1761C250.474 36.8295 251.787 38.9091 252.724 41.4148C253.662 43.9034 254.13 46.8182 254.13 50.1591V53.1506H220.968V46.4006H243.878C243.878 44.8324 243.537 43.4432 242.855 42.233C242.173 41.0227 241.227 40.0767 240.017 39.3949C238.824 38.696 237.434 38.3466 235.849 38.3466C234.196 38.3466 232.73 38.7301 231.451 39.4972C230.19 40.2472 229.201 41.2614 228.485 42.5398C227.77 43.8011 227.403 45.2074 227.386 46.7585V53.1761C227.386 55.1193 227.744 56.7983 228.46 58.2131C229.193 59.6278 230.224 60.7188 231.554 61.4858C232.883 62.2528 234.46 62.6364 236.284 62.6364C237.494 62.6364 238.602 62.4659 239.608 62.125C240.613 61.7841 241.474 61.2727 242.19 60.5909C242.906 59.9091 243.451 59.0739 243.826 58.0852L253.9 58.75C253.389 61.1705 252.341 63.2841 250.755 65.0909C249.187 66.8807 247.159 68.2784 244.67 69.2841C242.199 70.2727 239.343 70.767 236.105 70.767ZM275.71 70.6392C272.727 70.6392 270.025 69.8722 267.605 68.3381C265.201 66.7869 263.292 64.5114 261.878 61.5114C260.48 58.4943 259.781 54.7955 259.781 50.4148C259.781 45.9148 260.505 42.1733 261.954 39.1903C263.403 36.1903 265.329 33.9489 267.733 32.4659C270.153 30.9659 272.804 30.2159 275.684 30.2159C277.883 30.2159 279.716 30.5909 281.181 31.3409C282.664 32.0739 283.858 32.9943 284.761 34.1023C285.681 35.1932 286.38 36.267 286.858 37.3239H287.19V17.6364H298.056V70H287.318V63.7102H286.858C286.346 64.8011 285.622 65.8835 284.684 66.9574C283.764 68.0142 282.562 68.892 281.079 69.5909C279.613 70.2898 277.824 70.6392 275.71 70.6392ZM279.162 61.9716C280.917 61.9716 282.4 61.4943 283.61 60.5398C284.838 59.5682 285.775 58.2131 286.423 56.4744C287.088 54.7358 287.42 52.6989 287.42 50.3636C287.42 48.0284 287.096 46 286.449 44.2784C285.801 42.5568 284.863 41.2273 283.636 40.2898C282.409 39.3523 280.917 38.8835 279.162 38.8835C277.372 38.8835 275.863 39.3693 274.636 40.3409C273.409 41.3125 272.48 42.6591 271.849 44.3807C271.218 46.1023 270.903 48.0966 270.903 50.3636C270.903 52.6477 271.218 54.6676 271.849 56.4233C272.497 58.1619 273.426 59.5256 274.636 60.5142C275.863 61.4858 277.372 61.9716 279.162 61.9716Z" fill="#FAFDFF"/>
</svg>
