<svg width="32" height="32" viewBox="0 0 32 32" fill="none" xmlns="http://www.w3.org/2000/svg">
<path d="M16 32C7.1632 32 0 24.8368 0 16C0 7.1632 7.1632 0 16 0C24.8368 0 32 7.1632 32 16C32 24.8368 24.8368 32 16 32ZM11.024 17.872L11.0448 17.8608L12.4368 22.4528C12.616 22.9504 12.8624 23.04 13.1616 22.9984C13.4624 22.9584 13.6208 22.7968 13.8176 22.608L15.7184 20.7712L19.7984 23.792C20.544 24.2032 21.08 23.9904 21.2656 23.1008L23.9184 10.5856C24.2112 9.4208 23.696 8.9536 22.7936 9.3248L7.2208 15.3408C6.1584 15.7664 6.1648 16.3616 7.0288 16.6256L11.024 17.872Z" fill="#191919"/>
</svg>
