<svg width="32" height="35" viewBox="0 0 32 35" fill="none" xmlns="http://www.w3.org/2000/svg">
<path fill-rule="evenodd" clip-rule="evenodd" d="M24.1319 0.89789C18.7762 -0.299296 13.2222 -0.299296 7.86651 0.89789L7.28943 1.02556C5.78293 1.36238 4.39929 2.11023 3.29223 3.18605C2.18516 4.26187 1.398 5.62353 1.01819 7.11976C-0.339396 12.4693 -0.339396 18.0731 1.01819 23.4226C1.38039 24.8496 2.11345 26.1554 3.14304 27.2077C4.17264 28.26 5.46216 29.0214 6.88088 29.4147L7.67244 34.1402C7.69771 34.2903 7.76275 34.4308 7.86078 34.5472C7.9588 34.6636 8.08624 34.7516 8.22982 34.802C8.37339 34.8524 8.52786 34.8634 8.67713 34.8338C8.8264 34.8043 8.96501 34.7352 9.07854 34.6339L13.7275 30.4752C17.2173 30.6882 20.7198 30.4091 24.1319 29.6462L24.7107 29.5185C26.2172 29.1817 27.6008 28.4338 28.7079 27.358C29.815 26.2822 30.6021 24.9206 30.9819 23.4243C32.3394 18.0748 32.3394 12.471 30.9819 7.12147C30.602 5.62501 29.8146 4.2632 28.7072 3.18737C27.5998 2.11153 26.2158 1.3638 24.709 1.02726L24.1319 0.89789ZM9.30324 6.98188C8.98686 6.93583 8.66426 6.99951 8.38911 7.16232H8.36528C7.72692 7.53683 7.15154 8.00836 6.66128 8.56331C6.25273 9.03484 6.03144 9.51148 5.97356 9.9711C5.93951 10.2435 5.96334 10.5192 6.04335 10.7797L6.07399 10.7967C6.53361 12.1466 7.13282 13.4455 7.8648 14.6677C8.80864 16.3845 9.97012 17.9722 11.3205 19.3916L11.3613 19.4495L11.426 19.4971L11.4651 19.5431L11.5128 19.5839C12.9372 20.9383 14.5286 22.1053 16.2486 23.0566C18.2147 24.1274 19.408 24.6329 20.1247 24.844V24.8542C20.3341 24.9189 20.5247 24.9479 20.7171 24.9479C21.3275 24.9028 21.9051 24.6547 22.3581 24.2431C22.9114 23.7529 23.3795 23.1758 23.7438 22.534V22.5221C24.0859 21.8752 23.9702 21.2658 23.4765 20.8522C22.4849 19.9857 21.4127 19.2162 20.2745 18.5541C19.5119 18.1404 18.7373 18.3906 18.4241 18.8094L17.7551 19.6537C17.4113 20.0725 16.7882 20.0146 16.7882 20.0146L16.7712 20.0248C12.1222 18.8383 10.8813 14.1315 10.8813 14.1315C10.8813 14.1315 10.8234 13.4914 11.2541 13.1646L12.0916 12.4905C12.4933 12.1637 12.7725 11.3908 12.3418 10.6282C11.6841 9.48895 10.9161 8.41704 10.0488 7.42788C9.8597 7.19508 9.59444 7.03653 9.29983 6.98018L9.30324 6.98188ZM17.1576 4.93572C16.9319 4.93572 16.7154 5.0254 16.5558 5.18502C16.3961 5.34464 16.3065 5.56113 16.3065 5.78687C16.3065 6.01261 16.3961 6.2291 16.5558 6.38872C16.7154 6.54834 16.9319 6.63802 17.1576 6.63802C19.311 6.63802 21.0984 7.34106 22.513 8.68928C23.2399 9.42637 23.8068 10.2996 24.1779 11.2563C24.5507 12.2147 24.7209 13.2378 24.6766 14.2626C24.6719 14.3744 24.6893 14.486 24.7277 14.591C24.7662 14.6961 24.8249 14.7925 24.9007 14.8749C25.0536 15.0412 25.2663 15.14 25.492 15.1495C25.7178 15.159 25.938 15.0784 26.1044 14.9255C26.2707 14.7725 26.3694 14.5598 26.3789 14.3341C26.4317 13.0735 26.2225 11.8157 25.7644 10.6401C25.3043 9.45894 24.6068 8.38477 23.7148 7.48406L23.6978 7.46703C21.9428 5.79028 19.7213 4.93572 17.1576 4.93572ZM17.0997 7.73429C16.874 7.73429 16.6575 7.82397 16.4979 7.98359C16.3383 8.14321 16.2486 8.3597 16.2486 8.58544C16.2486 8.81118 16.3383 9.02767 16.4979 9.18729C16.6575 9.34691 16.874 9.43658 17.0997 9.43658H17.1287C18.6812 9.54723 19.8115 10.0647 20.603 10.9142C21.415 11.7892 21.8355 12.8769 21.8032 14.2217C21.798 14.4475 21.8827 14.666 22.0386 14.8293C22.1946 14.9926 22.409 15.0873 22.6347 15.0924C22.8605 15.0976 23.079 15.0129 23.2423 14.857C23.4056 14.701 23.5003 14.4866 23.5055 14.2609C23.5463 12.4956 22.9777 10.9721 21.8508 9.75661V9.75321C20.6984 8.51735 19.117 7.86367 17.2138 7.73599L17.1848 7.73259L17.0997 7.73429ZM17.0674 10.5856C16.9535 10.5756 16.8387 10.5886 16.7299 10.6239C16.6212 10.6592 16.5206 10.716 16.4343 10.791C16.348 10.866 16.2777 10.9576 16.2276 11.0604C16.1774 11.1632 16.1485 11.275 16.1426 11.3892C16.1366 11.5034 16.1538 11.6176 16.1929 11.725C16.2321 11.8325 16.2925 11.9309 16.3706 12.0145C16.4486 12.098 16.5427 12.165 16.6472 12.2114C16.7517 12.2578 16.8645 12.2827 16.9789 12.2845C17.6904 12.322 18.1449 12.5365 18.4309 12.8241C18.7186 13.1135 18.9331 13.5783 18.9723 14.3051C18.9744 14.4194 18.9995 14.532 19.0461 14.6363C19.0926 14.7406 19.1597 14.8345 19.2433 14.9123C19.327 14.9902 19.4254 15.0504 19.5328 15.0894C19.6402 15.1283 19.7543 15.1453 19.8684 15.1393C19.9825 15.1332 20.0942 15.1042 20.1968 15.0541C20.2995 15.004 20.391 14.9337 20.4659 14.8474C20.5408 14.7612 20.5976 14.6607 20.6328 14.552C20.6681 14.4434 20.6811 14.3287 20.6711 14.2149C20.6167 13.1935 20.2966 12.2913 19.6413 11.6274C18.9825 10.9635 18.0854 10.6401 17.0674 10.5856Z" fill="#191919"/>
</svg>
