<svg width="48" height="48" viewBox="0 0 48 48" fill="none" xmlns="http://www.w3.org/2000/svg">
<path d="M23.3074 7.11771C24.1646 7.11771 24.8726 6.40971 24.8726 5.57143V1.54714C24.8726 0.69 24.1646 0 23.3074 0C22.4692 0 21.7603 0.69 21.7603 1.54629V5.57143C21.7603 6.40971 22.4692 7.11771 23.3074 7.11771ZM31.9157 10.7143C32.4934 11.3109 33.5186 11.3289 34.1332 10.7143L36.966 7.84457C37.2526 7.55422 37.4133 7.16268 37.4133 6.75471C37.4133 6.34675 37.2526 5.9552 36.966 5.66486C36.6793 5.37834 36.2905 5.21739 35.8852 5.21739C35.4798 5.21739 35.091 5.37834 34.8043 5.66486L31.9157 8.55343C31.32 9.14914 31.338 10.1186 31.9157 10.7143ZM14.4377 48C19.8034 48 24.1646 43.6397 24.1646 38.2731C24.1646 35.4411 22.9903 32.9631 20.7729 30.9506C20.3632 30.5777 20.2697 30.3729 20.2697 29.814L20.2886 28.0251C21.2392 28.3791 22.2634 28.5463 23.3074 28.5463C28.4314 28.5463 32.5303 24.4474 32.5303 19.3234C32.5357 18.1098 32.301 16.9071 31.8397 15.7846C31.3784 14.6621 30.6995 13.6419 29.8423 12.7828C28.9851 11.9237 27.9663 11.2427 26.8448 10.779C25.7233 10.3153 24.5211 10.078 23.3074 10.0809C22.152 10.0809 21.0343 10.3037 19.9714 10.7323C19.2086 8.18057 17.1772 6.59657 14.4377 6.59657C10.9157 6.59657 8.54916 9.186 8.54916 13.0809L8.56801 29.814C8.56801 30.3729 8.47459 30.5777 8.08373 30.9506C5.84744 32.9631 4.69287 35.4411 4.69287 38.2731C4.69287 43.6397 9.0343 48 14.4377 48ZM14.4377 45.2983C10.5617 45.2983 7.41259 42.1303 7.41259 38.2731C7.41259 35.9443 8.5123 33.8383 10.4872 32.5157C11.0649 32.124 11.2886 31.77 11.2886 31.0063V13.1923C11.2886 10.8446 12.5743 9.33514 14.4377 9.33514C16.2823 9.33514 17.5492 10.8446 17.5492 13.1923V31.0063C17.5492 31.77 17.7729 32.124 18.3506 32.5149C20.3263 33.8383 21.4252 35.9434 21.4252 38.2731C21.4252 42.1303 18.2949 45.2983 14.4377 45.2983ZM23.3074 12.8014C26.9589 12.8014 29.7917 15.6523 29.7917 19.3234C29.7917 22.9749 26.9597 25.8266 23.3074 25.8266C22.254 25.8209 21.2178 25.5585 20.2886 25.062L20.3074 13.6209C21.2203 13.0997 22.2446 12.8014 23.3074 12.8014ZM14.4189 42.7826C16.9157 42.7826 18.9283 40.7511 18.9283 38.2551C18.9283 36.5031 17.9409 35.0683 16.506 34.2857C15.9094 33.9686 15.7046 33.7457 15.7046 32.832V14.7583C15.7046 13.7897 15.1457 13.1923 14.4189 13.1923C13.7109 13.1923 13.1332 13.7889 13.1332 14.7583V32.832C13.1332 33.7457 12.9283 33.9686 12.3326 34.2857C10.8977 35.0683 9.90944 36.5031 9.90944 38.2543C9.90639 38.8482 10.0208 39.4369 10.2461 39.9864C10.4714 40.536 10.8032 41.0355 11.2223 41.4564C11.6414 41.8772 12.1396 42.2111 12.6881 42.4387C13.2367 42.6663 13.8249 42.7831 14.4189 42.7826ZM37.0029 20.8697H41.0469C41.8852 20.8697 42.5743 20.1617 42.5743 19.3234C42.5743 18.4663 41.8852 17.7763 41.0469 17.7763H37.0029C36.1834 17.7763 35.4746 18.4663 35.4746 19.3234C35.4746 20.1617 36.1834 20.8697 37.0029 20.8697ZM34.8043 33C35.4009 33.5966 36.3694 33.5777 36.966 32.9811C37.5617 32.3854 37.5617 31.3971 36.966 30.8203L34.0963 27.9506C33.4997 27.3729 32.5123 27.354 31.9157 27.9506C31.6291 28.2409 31.4684 28.6325 31.4684 29.0404C31.4684 29.4484 31.6291 29.8399 31.9157 30.1303L34.8043 33Z" fill="#08447F"/>
</svg>
